<svg width="16" height="16" viewBox="0 0 16 16" fill="none" xmlns="http://www.w3.org/2000/svg">
<g id="slack" clip-path="url(#clip0_3_772)">
<g id="Icon">
<path d="M9.66668 6.66666C9.11334 6.66666 8.66668 6.22 8.66668 5.66666V2.33333C8.66668 1.77999 9.11334 1.33333 9.66668 1.33333C10.22 1.33333 10.6667 1.77999 10.6667 2.33333V5.66666C10.6667 6.22 10.22 6.66666 9.66668 6.66666Z" stroke="#344054" stroke-width="1.5" stroke-linecap="round" stroke-linejoin="round"/>
<path d="M13.6667 6.66666H12.6667V5.66666C12.6667 5.11333 13.1133 4.66666 13.6667 4.66666C14.22 4.66666 14.6667 5.11333 14.6667 5.66666C14.6667 6.22 14.22 6.66666 13.6667 6.66666Z" stroke="#344054" stroke-width="1.5" stroke-linecap="round" stroke-linejoin="round"/>
<path d="M6.33334 9.33333C6.88668 9.33333 7.33334 9.78 7.33334 10.3333V13.6667C7.33334 14.22 6.88668 14.6667 6.33334 14.6667C5.78001 14.6667 5.33334 14.22 5.33334 13.6667V10.3333C5.33334 9.78 5.78001 9.33333 6.33334 9.33333Z" stroke="#344054" stroke-width="1.5" stroke-linecap="round" stroke-linejoin="round"/>
<path d="M2.33334 9.33333H3.33334V10.3333C3.33334 10.8867 2.88668 11.3333 2.33334 11.3333C1.78001 11.3333 1.33334 10.8867 1.33334 10.3333C1.33334 9.78 1.78001 9.33333 2.33334 9.33333Z" stroke="#344054" stroke-width="1.5" stroke-linecap="round" stroke-linejoin="round"/>
<path d="M9.33334 9.66666C9.33334 9.11333 9.78001 8.66666 10.3333 8.66666H13.6667C14.22 8.66666 14.6667 9.11333 14.6667 9.66666C14.6667 10.22 14.22 10.6667 13.6667 10.6667H10.3333C9.78001 10.6667 9.33334 10.22 9.33334 9.66666Z" stroke="#344054" stroke-width="1.5" stroke-linecap="round" stroke-linejoin="round"/>
<path d="M10.3333 12.6667H9.33334V13.6667C9.33334 14.22 9.78001 14.6667 10.3333 14.6667C10.8867 14.6667 11.3333 14.22 11.3333 13.6667C11.3333 13.1133 10.8867 12.6667 10.3333 12.6667Z" stroke="#344054" stroke-width="1.5" stroke-linecap="round" stroke-linejoin="round"/>
<path d="M6.66668 6.33333C6.66668 5.78 6.22001 5.33333 5.66668 5.33333H2.33334C1.78001 5.33333 1.33334 5.78 1.33334 6.33333C1.33334 6.88666 1.78001 7.33333 2.33334 7.33333H5.66668C6.22001 7.33333 6.66668 6.88666 6.66668 6.33333Z" stroke="#344054" stroke-width="1.5" stroke-linecap="round" stroke-linejoin="round"/>
<path d="M5.66668 3.33333H6.66668V2.33333C6.66668 1.77999 6.22001 1.33333 5.66668 1.33333C5.11334 1.33333 4.66668 1.77999 4.66668 2.33333C4.66668 2.88666 5.11334 3.33333 5.66668 3.33333Z" stroke="#344054" stroke-width="1.5" stroke-linecap="round" stroke-linejoin="round"/>
</g>
</g>
<defs>
<clipPath id="clip0_3_772">
<rect width="16" height="16" fill="white"/>
</clipPath>
</defs>
</svg>
